HIERARCHY
ROOT Hips
{
	OFFSET 0.000000 71.427986 0.000000
	CHANNELS 6 Xposition Yposition Zposition Xrotation Yrotation Zrotation
	JOINT Pelvis
	{
		OFFSET 0.000000 0.000000 0.000000
		CHANNELS 3 Xrotation Yrotation Zrotation
		JOINT LeftUpLeg
		{
			OFFSET 6.797100 -2.508499 -1.318700
			CHANNELS 3 Xrotation Yrotation Zrotation
			JOINT LeftLeg
			{
				OFFSET 0.069008 -29.241863 0.690200
				CHANNELS 3 Xrotation Yrotation Zrotation
				JOINT LeftFoot
				{
					OFFSET -0.069008 -29.568123 -0.266800
					CHANNELS 3 Xrotation Yrotation Zrotation
					JOINT LeftToeBase
					{
						OFFSET 3.145500 -8.631000 16.059900
						CHANNELS 3 Xrotation Yrotation Zrotation
						End Site
						{
							OFFSET 0.000000 18.501587 0.000000
						}
					}
				}
			}
			JOINT Left_ShortSleeve
			{
				OFFSET 0.265923 -10.480953 1.153800
				CHANNELS 3 Xrotation Yrotation Zrotation
				End Site
				{
					OFFSET 1.725763 19.823879 0.000000
				}
			}
		}
		JOINT RightUpLeg
		{
			OFFSET -6.797100 -2.508499 -1.318700
			CHANNELS 3 Xrotation Yrotation Zrotation
			JOINT RightLeg
			{
				OFFSET -0.082453 -29.241932 0.688000
				CHANNELS 3 Xrotation Yrotation Zrotation
				JOINT RightFoot
				{
					OFFSET 0.082453 -29.568058 -0.264600
					CHANNELS 3 Xrotation Yrotation Zrotation
					JOINT RightToeBase
					{
						OFFSET -3.115300 -8.682800 16.113400
						CHANNELS 3 Xrotation Yrotation Zrotation
						End Site
						{
							OFFSET 0.000000 18.567114 0.000000
						}
					}
				}
			}
			JOINT Right_ShortSleeve
			{
				OFFSET -0.265923 -10.480953 1.153800
				CHANNELS 3 Xrotation Yrotation Zrotation
				End Site
				{
					OFFSET -1.725766 19.823910 0.000000
				}
			}
		}
	}
	JOINT Spine
	{
		OFFSET 0.000000 13.368103 0.470500
		CHANNELS 3 Xrotation Yrotation Zrotation
		JOINT Spine1
		{
			OFFSET 0.147000 13.837402 0.538800
			CHANNELS 3 Xrotation Yrotation Zrotation
			JOINT Spine2
			{
				OFFSET 0.168000 16.242897 -1.435500
				CHANNELS 3 Xrotation Yrotation Zrotation
				JOINT Neck
				{
					OFFSET 0.217200 18.631500 -1.679100
					CHANNELS 3 Xrotation Yrotation Zrotation
					JOINT Head
					{
						OFFSET 0.000000 6.599396 1.385900
						CHANNELS 3 Xrotation Yrotation Zrotation
						JOINT Hat
						{
							OFFSET -0.532200 27.220596 -10.096100
							CHANNELS 3 Xrotation Yrotation Zrotation
							End Site
							{
								OFFSET 0.000000 22.029861 0.000000
							}
						}
						JOINT HairD
						{
							OFFSET -10.777400 17.437393 -1.325900
							CHANNELS 3 Xrotation Yrotation Zrotation
							JOINT HairD1
							{
								OFFSET -3.290299 -11.051193 1.062200
								CHANNELS 3 Xrotation Yrotation Zrotation
								End Site
								{
									OFFSET 0.000000 11.579437 0.000000
								}
							}
						}
						JOINT HairB
						{
							OFFSET -10.777400 17.437393 1.467900
							CHANNELS 3 Xrotation Yrotation Zrotation
							JOINT HairB1
							{
								OFFSET -1.561200 -12.956299 3.590200
								CHANNELS 3 Xrotation Yrotation Zrotation
								End Site
								{
									OFFSET 0.000000 13.534866 0.000000
								}
							}
						}
						JOINT HairA
						{
							OFFSET 9.713100 17.437393 1.467900
							CHANNELS 3 Xrotation Yrotation Zrotation
							JOINT HairA1
							{
								OFFSET 1.561200 -12.956299 3.590200
								CHANNELS 3 Xrotation Yrotation Zrotation
								End Site
								{
									OFFSET 0.000000 13.534866 0.000000
								}
							}
						}
						JOINT HairC
						{
							OFFSET 9.713100 17.437393 -1.325900
							CHANNELS 3 Xrotation Yrotation Zrotation
							JOINT HairC1
							{
								OFFSET 3.290300 -11.051193 1.062200
								CHANNELS 3 Xrotation Yrotation Zrotation
								End Site
								{
									OFFSET 0.000000 11.579437 0.000000
								}
							}
						}
					}
				}
				JOINT LeftShoulder
				{
					OFFSET 5.101800 15.108002 -2.763700
					CHANNELS 3 Xrotation Yrotation Zrotation
					JOINT LeftArm
					{
						OFFSET 9.825497 2.506317 -1.597400
						CHANNELS 3 Xrotation Yrotation Zrotation
						JOINT LeftForeArm
						{
							OFFSET 21.966244 0.000000 0.000000
							CHANNELS 3 Xrotation Yrotation Zrotation
							JOINT LeftHand
							{
								OFFSET 33.879036 0.000000 0.000000
								CHANNELS 3 Xrotation Yrotation Zrotation
								JOINT LeftHandThumb1
								{
									OFFSET 6.715286 -2.359680 3.363841
									CHANNELS 3 Xrotation Yrotation Zrotation
									JOINT LeftHandThumb2
									{
										OFFSET 2.507072 -1.447464 1.447461
										CHANNELS 3 Xrotation Yrotation Zrotation
										JOINT LeftHandThumb3
										{
											OFFSET 2.898338 -1.673355 1.673357
											CHANNELS 3 Xrotation Yrotation Zrotation
											End Site
											{
												OFFSET -0.295959 3.727692 -0.131651
											}
										}
									}
								}
								JOINT LeftHandIndex1
								{
									OFFSET 14.190811 -0.254547 3.840278
									CHANNELS 3 Xrotation Yrotation Zrotation
									JOINT LeftHandIndex2
									{
										OFFSET 3.551727 0.000000 -0.000000
										CHANNELS 3 Xrotation Yrotation Zrotation
										JOINT LeftHandIndex3
										{
											OFFSET 2.894196 0.000000 0.000000
											CHANNELS 3 Xrotation Yrotation Zrotation
											End Site
											{
												OFFSET -1.000603 2.690872 0.366626
											}
										}
									}
								}
								JOINT LeftHandMiddle1
								{
									OFFSET 13.776489 0.000000 0.000000
									CHANNELS 3 Xrotation Yrotation Zrotation
									JOINT LeftHandMiddle2
									{
										OFFSET 3.438232 0.000000 0.000000
										CHANNELS 3 Xrotation Yrotation Zrotation
										JOINT LeftHandMiddle3
										{
											OFFSET 3.691551 0.000000 0.000000
											CHANNELS 3 Xrotation Yrotation Zrotation
											End Site
											{
												OFFSET -1.082298 3.499527 0.457670
											}
										}
									}
								}
								JOINT LeftHandRing1
								{
									OFFSET 13.966164 -0.268127 -3.067488
									CHANNELS 3 Xrotation Yrotation Zrotation
									JOINT LeftHandRing2
									{
										OFFSET 3.162567 0.000000 0.000000
										CHANNELS 3 Xrotation Yrotation Zrotation
										JOINT LeftHandRing3
										{
											OFFSET 3.324348 0.000000 0.000000
											CHANNELS 3 Xrotation Yrotation Zrotation
											End Site
											{
												OFFSET -0.861900 3.184998 0.405154
											}
										}
									}
								}
								JOINT LeftHandPinky1
								{
									OFFSET 13.131393 -0.168503 -5.746925
									CHANNELS 3 Xrotation Yrotation Zrotation
									JOINT LeftHandPinky2
									{
										OFFSET 2.849182 0.000000 0.000000
										CHANNELS 3 Xrotation Yrotation Zrotation
										JOINT LeftHandPinky3
										{
											OFFSET 2.805038 0.000000 0.000000
											CHANNELS 3 Xrotation Yrotation Zrotation
											End Site
											{
												OFFSET -0.882500 2.642609 0.325652
											}
										}
									}
								}
							}
							JOINT Left_Sleeve
							{
								OFFSET 6.592125 -0.646545 0.805568
								CHANNELS 3 Xrotation Yrotation Zrotation
								End Site
								{
									OFFSET -0.000179 20.275787 -0.000000
								}
							}
						}
					}
				}
				JOINT RightShoulder
				{
					OFFSET -5.731700 15.108002 -2.763700
					CHANNELS 3 Xrotation Yrotation Zrotation
					JOINT RightArm
					{
						OFFSET -9.825497 2.506317 -1.597400
						CHANNELS 3 Xrotation Yrotation Zrotation
						JOINT RightForeArm
						{
							OFFSET -21.966242 0.000000 0.000000
							CHANNELS 3 Xrotation Yrotation Zrotation
							JOINT RightHand
							{
								OFFSET -33.879032 0.000000 0.000000
								CHANNELS 3 Xrotation Yrotation Zrotation
								JOINT RightHandThumb1
								{
									OFFSET -6.715286 -2.359680 3.363841
									CHANNELS 3 Xrotation Yrotation Zrotation
									JOINT RightHandThumb2
									{
										OFFSET -2.507072 -1.447464 1.447461
										CHANNELS 3 Xrotation Yrotation Zrotation
										JOINT RightHandThumb3
										{
											OFFSET -2.898338 -1.673355 1.673357
											CHANNELS 3 Xrotation Yrotation Zrotation
											End Site
											{
												OFFSET 0.295959 3.727692 -0.131651
											}
										}
									}
								}
								JOINT RightHandIndex1
								{
									OFFSET -14.190811 -0.254547 3.840278
									CHANNELS 3 Xrotation Yrotation Zrotation
									JOINT RightHandIndex2
									{
										OFFSET -3.551727 0.000000 -0.000000
										CHANNELS 3 Xrotation Yrotation Zrotation
										JOINT RightHandIndex3
										{
											OFFSET -2.894196 0.000000 0.000000
											CHANNELS 3 Xrotation Yrotation Zrotation
											End Site
											{
												OFFSET 1.000603 2.690872 0.366626
											}
										}
									}
								}
								JOINT RightHandMiddle1
								{
									OFFSET -13.776489 0.000000 0.000000
									CHANNELS 3 Xrotation Yrotation Zrotation
									JOINT RightHandMiddle2
									{
										OFFSET -3.438232 0.000000 0.000000
										CHANNELS 3 Xrotation Yrotation Zrotation
										JOINT RightHandMiddle3
										{
											OFFSET -3.691551 0.000000 0.000000
											CHANNELS 3 Xrotation Yrotation Zrotation
											End Site
											{
												OFFSET 1.082298 3.499527 0.457670
											}
										}
									}
								}
								JOINT RightHandRing1
								{
									OFFSET -13.966164 -0.268127 -3.067488
									CHANNELS 3 Xrotation Yrotation Zrotation
									JOINT RightHandRing2
									{
										OFFSET -3.162567 0.000000 0.000000
										CHANNELS 3 Xrotation Yrotation Zrotation
										JOINT RightHandRing3
										{
											OFFSET -3.324348 0.000000 0.000000
											CHANNELS 3 Xrotation Yrotation Zrotation
											End Site
											{
												OFFSET 0.861900 3.184998 0.405154
											}
										}
									}
								}
								JOINT RightHandPinky1
								{
									OFFSET -13.131393 -0.168503 -5.746925
									CHANNELS 3 Xrotation Yrotation Zrotation
									JOINT RightHandPinky2
									{
										OFFSET -2.849182 0.000000 0.000000
										CHANNELS 3 Xrotation Yrotation Zrotation
										JOINT RightHandPinky3
										{
											OFFSET -2.805038 0.000000 0.000000
											CHANNELS 3 Xrotation Yrotation Zrotation
											End Site
											{
												OFFSET 0.882500 2.642609 0.325652
											}
										}
									}
								}
							}
							JOINT Right_Sleeve
							{
								OFFSET -6.592125 -0.646545 0.805568
								CHANNELS 3 Xrotation Yrotation Zrotation
								End Site
								{
									OFFSET 0.000179 20.275787 -0.000000
								}
							}
						}
					}
				}
				JOINT Bind_Right_JacketString
				{
					OFFSET -3.534800 11.969597 7.200700
					CHANNELS 3 Xrotation Yrotation Zrotation
					JOINT Bind_Right_JacketString1
					{
						OFFSET -0.319900 -6.102600 2.794100
						CHANNELS 3 Xrotation Yrotation Zrotation
						End Site
						{
							OFFSET 0.000000 6.719452 0.000000
						}
					}
				}
				JOINT Bind_Left_JacketString
				{
					OFFSET 2.904800 11.969597 7.200700
					CHANNELS 3 Xrotation Yrotation Zrotation
					JOINT Bind_Left_JacketString1
					{
						OFFSET 0.364800 -5.904503 3.186800
						CHANNELS 3 Xrotation Yrotation Zrotation
						End Site
						{
							OFFSET 0.000000 6.719513 0.000000
						}
					}
				}
				JOINT HairE
				{
					OFFSET 5.915200 17.612701 -11.592200
					CHANNELS 3 Xrotation Yrotation Zrotation
					JOINT HairE1
					{
						OFFSET 0.289200 -7.171898 -1.284500
						CHANNELS 3 Xrotation Yrotation Zrotation
						End Site
						{
							OFFSET 0.000000 7.291756 0.000000
						}
					}
				}
				JOINT HairF
				{
					OFFSET -0.864800 17.612701 -11.592200
					CHANNELS 3 Xrotation Yrotation Zrotation
					JOINT HairF1
					{
						OFFSET 0.000000 -14.087097 -2.127501
						CHANNELS 3 Xrotation Yrotation Zrotation
						End Site
						{
							OFFSET 0.000000 14.246841 0.000000
						}
					}
				}
				JOINT HairG
				{
					OFFSET -8.087700 17.612701 -11.592200
					CHANNELS 3 Xrotation Yrotation Zrotation
					JOINT HairG1
					{
						OFFSET -0.293600 -6.081398 -0.910100
						CHANNELS 3 Xrotation Yrotation Zrotation
						End Site
						{
							OFFSET 0.000000 6.156120 0.000000
						}
					}
				}
			}
		}
	}
	JOINT Pouch
	{
		OFFSET 0.000000 4.394501 10.847300
		CHANNELS 3 Xrotation Yrotation Zrotation
		End Site
		{
			OFFSET 0.000000 21.880577 0.000000
		}
	}
	JOINT Bag
	{
		OFFSET -13.229000 4.813004 -0.593300
		CHANNELS 3 Xrotation Yrotation Zrotation
		End Site
		{
			OFFSET 0.000000 21.880577 0.000000
		}
	}
	JOINT OccupyGuyFacialAnim_Joint
	{
		OFFSET 1.000000 -70.206398 -1.655000
		CHANNELS 3 Xrotation Yrotation Zrotation
		End Site
		{
			OFFSET 0.000000 21.880577 0.000000
		}
	}
}
MOTION
Frames: 4
Frame Time: 0.033333
1.025323 216.904449 0.408303 -27.903761 48.862080 19.155067 -0.000000 0.000000 -0.000000 -24.775615 19.249370 38.421388 66.958742 -6.286781 -4.922032 -27.017139 -15.591963 0.101241 0.000000 0.000000 0.000000 0.000002 -0.000000 0.000000 -20.168592 -15.046292 -33.409659 25.175212 2.099386 -0.252035 15.645506 2.609612 22.022830 0.000000 0.000000 -0.000000 0.000002 0.000001 -0.000000 30.790602 1.578260 2.712773 26.607227 -6.982210 5.703148 -6.111698 9.784740 3.131032 -23.595133 -23.083347 -25.962355 -2.246174 -15.067513 16.060686 -0.000000 -0.000002 -0.000000 -0.000000 -0.000002 -0.000000 -0.000000 -0.000002 -0.000000 -0.000000 -0.000002 0.000000 -0.000000 -0.000000 -0.000000 -0.000000 -0.000002 0.000000 -0.000000 -0.000000 -0.000000 -0.000000 -0.000002 -0.000000 -0.000000 -0.000002 -0.000000 0.984213 2.904643 -3.716561 -31.168267 -33.909062 -70.893908 -0.000000 -104.811247 0.000005 14.963857 -36.784250 1.536167 1.651930 2.175612 4.835940 6.368498 13.380615 1.374154 -0.000001 -0.000002 0.000002 0.365533 -0.109611 8.330908 0.078898 0.959261 -9.403935 0.000000 -0.000002 0.000003 0.618908 9.381045 -4.346702 0.081536 0.975101 -9.560332 -0.000001 0.000003 -0.000002 1.278717 6.675100 -20.272152 0.253227 1.705443 -16.890564 -0.000001 0.000002 0.000002 4.863638 11.034673 -34.790760 0.165160 1.382647 -13.622984 -0.000003 -0.000003 -0.000001 -0.000001 -0.000001 -0.000001 -2.095344 9.979746 -13.559459 15.950983 6.730417 70.581092 -0.000042 95.851876 0.000036 35.287083 20.766552 -18.886248 -7.721606 3.733510 -5.054292 6.358358 -14.447597 -2.112220 -0.000003 0.000000 0.000003 -0.737314 -5.989693 -10.925426 0.060897 -0.751489 9.265821 -0.000001 -0.000000 -0.000002 -0.207658 -6.615013 -3.465809 0.452288 -2.003840 25.435676 -0.000002 0.000001 -0.000001 1.266172 -7.494731 14.629714 0.840688 -2.670998 34.936899 -0.000002 -0.000003 0.000001 1.967726 -7.632401 23.515069 1.193619 -3.115259 41.920768 -0.000001 0.000000 0.000001 -0.000000 -0.000000 0.000001 0.000001 0.000002 0.000001 0.000002 0.000000 -0.000000 0.000001 0.000002 0.000001 0.000001 0.000002 0.000001 0.000001 0.000002 0.000001 0.000002 0.000000 -0.000000 0.000001 0.000002 0.000001 0.000001 0.000002 0.000001 0.000001 0.000002 0.000001 0.000002 0.000000 -0.000000 -0.000000 0.000000 -0.000000 -0.000000 0.000000 -0.000000 -0.000000 0.000000 -0.000000 
0.936155 216.879883 1.282750 -22.555836 45.968307 15.781827 0.000002 -0.000002 -0.000001 -24.542367 20.272060 36.920437 65.999558 -3.280218 -4.634583 -27.826665 -14.038316 -2.938953 -0.000000 0.000000 0.000000 -0.000000 -0.000001 0.000001 -24.974860 -11.781778 -32.819418 28.706605 3.908639 -0.466750 14.071858 2.125386 21.299317 0.000000 0.000001 0.000000 -0.000002 0.000001 0.000002 28.577793 1.049053 2.752693 24.592555 -6.765617 5.941645 -6.000350 8.730216 3.423394 -22.876013 -20.219419 -25.557591 -1.731028 -12.365959 15.348897 0.000000 -0.000000 0.000001 0.000000 -0.000000 0.000001 0.000000 -0.000000 0.000000 0.000000 -0.000000 0.000001 0.000000 0.000001 0.000000 0.000000 -0.000000 0.000001 0.000000 0.000001 0.000000 0.000000 -0.000000 0.000001 0.000000 -0.000000 0.000001 1.589795 -1.275892 -4.658486 -29.134643 -37.343550 -62.615868 0.000049 -102.686621 0.000043 7.562492 -35.503883 -8.471639 2.012089 3.432079 5.237799 6.555591 14.729168 1.502997 0.000004 -0.000003 0.000001 0.159217 0.961356 4.651497 0.155086 1.340393 -13.198905 -0.000003 0.000001 -0.000002 1.170075 10.168722 -8.183415 0.159497 1.359104 -13.386469 0.000005 -0.000000 -0.000005 1.683133 7.211323 -24.062369 0.378745 2.074064 -20.695275 -0.000003 0.000005 -0.000001 5.458245 11.091463 -38.679440 0.268921 1.756274 -17.410320 0.000000 -0.000001 -0.000001 -0.000003 0.000000 0.000000 -2.732916 8.772067 -8.893063 15.330764 5.379232 63.390323 -0.000352 95.578751 0.000340 25.348902 22.796139 -10.269663 -4.564860 3.264653 0.182257 7.135297 -20.956887 -2.633622 0.000000 -0.000001 -0.000000 0.891758 -7.353165 10.100047 0.609233 -2.304838 29.609106 -0.000001 -0.000001 0.000002 1.290185 -7.501935 14.924252 1.389307 -3.319988 45.406339 0.000001 0.000001 -0.000004 2.189142 -7.180625 30.377137 1.580585 -3.497958 48.622320 0.000000 0.000000 0.000000 0.973676 -8.936537 36.759627 1.655018 -3.562018 49.831124 -0.000002 -0.000000 -0.000003 0.000000 0.000003 0.000001 0.000001 0.000001 0.000003 0.000001 0.000000 0.000001 0.000001 0.000001 0.000001 0.000001 0.000001 0.000001 0.000001 0.000001 0.000003 0.000001 0.000000 0.000002 0.000001 0.000001 0.000001 0.000001 0.000001 0.000001 0.000001 0.000001 0.000003 0.000001 0.000000 0.000002 0.000002 -0.000002 -0.000001 0.000002 -0.000002 -0.000001 0.000002 -0.000002 -0.000001 
0.860159 216.823120 2.185517 -17.726356 42.908847 13.008492 0.000000 0.000002 0.000000 -24.210067 21.127486 35.098156 64.973308 -1.115494 -4.100010 -28.399908 -11.338432 -5.622774 0.000000 -0.000000 -0.000000 -0.000003 0.000001 -0.000002 -29.780106 -9.023272 -31.978351 31.952834 5.896332 -0.786145 12.667164 1.687609 20.490264 0.000000 0.000003 0.000000 -0.000000 -0.000001 -0.000001 26.377352 0.514304 2.788018 22.609386 -6.507607 6.195545 -5.857221 7.705655 3.741832 -22.277874 -17.260590 -25.293495 -0.933923 -9.664972 14.878462 -0.000001 0.000001 -0.000000 -0.000001 0.000001 -0.000000 -0.000001 0.000001 -0.000000 -0.000001 0.000001 -0.000000 -0.000000 -0.000000 -0.000000 -0.000001 0.000001 -0.000000 -0.000000 -0.000000 -0.000000 -0.000001 0.000001 -0.000000 -0.000001 0.000001 -0.000000 1.963606 -5.932582 -5.464488 -30.023189 -38.820794 -54.905886 -0.000006 -101.736016 -0.000012 0.797519 -32.959952 -19.654265 2.409214 4.853537 5.683496 6.764432 16.251470 1.643872 0.000001 0.000005 -0.000001 0.065738 2.136472 0.498195 0.271398 1.764122 -17.490801 0.000002 0.000000 0.000002 1.880179 10.950053 -12.535834 0.278405 1.786207 -17.716930 0.000003 -0.000004 -0.000002 2.170571 7.719131 -28.344242 0.549281 2.478647 -24.986975 -0.000003 -0.000002 -0.000002 6.085343 11.060121 -43.051772 0.414859 2.167188 -21.671273 -0.000003 0.000002 0.000001 0.000002 0.000000 -0.000000 -3.222866 7.042105 -3.570339 12.425999 6.024051 55.154071 -0.001204 94.176212 0.001221 14.654065 22.913627 -1.195474 -0.961031 3.082964 6.034088 7.974850 -28.247881 -3.131863 0.000000 -0.000002 0.000003 2.603597 -7.586310 32.901646 1.817553 -3.692811 52.399681 0.000002 -0.000002 0.000002 2.727164 -7.564117 34.927525 2.899840 -4.313551 67.808800 -0.000001 0.000001 -0.000001 2.553705 -6.618392 47.503993 2.559815 -4.159078 63.208326 0.000002 0.000001 -0.000001 -0.030640 -11.587200 51.257998 2.241209 -3.982686 58.722770 -0.000004 0.000001 -0.000001 0.000001 -0.000001 -0.000001 -0.000000 0.000003 -0.000002 -0.000002 -0.000000 0.000001 -0.000000 0.000003 -0.000002 -0.000000 0.000003 -0.000002 -0.000000 0.000003 -0.000002 -0.000002 -0.000000 0.000001 -0.000000 0.000003 -0.000002 -0.000000 0.000003 -0.000002 -0.000000 0.000003 -0.000002 -0.000002 -0.000000 0.000001 0.000000 0.000002 0.000000 0.000000 0.000002 0.000000 0.000000 0.000002 0.000000 
0.786082 216.786163 3.150509 -13.293473 39.655969 10.645612 0.000000 -0.000000 -0.000000 -23.699035 21.857555 33.128477 63.681351 0.392319 -3.470162 -28.667499 -7.764304 -7.996008 0.000000 0.000001 -0.000000 -0.000002 0.000003 0.000000 -34.023617 -6.156463 -30.475621 34.707367 7.227716 -1.110775 11.392153 1.391978 19.708789 0.000000 0.000003 -0.000000 0.000000 -0.000001 -0.000000 24.187976 -0.006537 2.817294 20.642182 -6.219250 6.428151 -5.686904 6.718475 4.051667 -21.605569 -14.324783 -25.041840 -0.189999 -7.111179 14.320913 0.000001 -0.000001 -0.000000 0.000001 -0.000001 -0.000000 0.000001 -0.000001 0.000000 0.000001 -0.000001 -0.000000 0.000000 -0.000001 -0.000000 0.000001 -0.000001 -0.000000 0.000000 -0.000001 -0.000000 0.000001 -0.000001 -0.000000 0.000001 -0.000001 -0.000000 2.061370 -10.793295 -6.207733 -35.113002 -38.792886 -50.203636 -0.000065 -101.410578 -0.000055 -4.793190 -29.696577 -31.216843 2.816178 6.352297 6.142965 6.981731 17.853575 1.787041 -0.000001 0.000002 0.000001 0.115985 3.319722 -3.886756 0.428111 2.200223 -22.019179 0.000006 0.000000 -0.000000 2.709994 11.640351 -17.147127 0.438346 2.225336 -22.284042 0.000004 0.000001 0.000003 2.701320 8.143616 -32.859811 0.760467 2.888363 -29.494915 -0.000001 -0.000000 -0.000002 6.681201 10.931230 -47.637547 0.599936 2.584432 -26.133378 -0.000002 -0.000001 0.000003 0.000002 0.000000 -0.000000 -2.946708 3.923803 -0.692266 8.821264 11.924619 49.057028 -0.001180 93.320813 0.001176 4.303455 21.819873 6.602298 2.543479 3.254092 11.632744 8.774013 -35.265551 -3.526394 0.000000 -0.000002 0.000004 3.547282 -7.149760 54.887803 3.406661 -4.486472 74.407896 -0.000001 0.000001 -0.000001 3.531719 -7.168665 54.141407 4.611067 -4.656936 89.432011 0.000000 0.000001 -0.000004 2.292459 -6.280905 63.891359 3.648938 -4.546958 77.483865 0.000003 -0.000001 -0.000000 0.201166 -14.640299 65.363210 2.860490 -4.297355 67.284958 -0.000000 0.000000 -0.000001 -0.000001 0.000001 0.000002 -0.000001 -0.000001 -0.000002 0.000000 0.000003 -0.000002 -0.000001 -0.000001 -0.000000 -0.000001 -0.000001 -0.000000 -0.000001 -0.000001 -0.000002 0.000000 0.000003 -0.000002 -0.000001 -0.000001 -0.000000 -0.000001 -0.000001 -0.000000 -0.000001 -0.000001 -0.000002 0.000000 0.000003 -0.000002 0.000000 -0.000000 -0.000000 0.000000 -0.000000 -0.000000 0.000000 -0.000000 -0.000000 
